{
	"asset":{
		"generator":"Khronos glTF Blender I/O v4.0.44",
		"version":"2.0"
	},
	"scene":0,
	"scenes":[
		{
			"name":"Scene",
			"nodes":[
				2
			]
		}
	],
	"nodes":[
		{
			"mesh":0,
			"name":"Object_2"
		},
		{
			"children":[
				0
			],
			"name":"Can.obj.cleaner.materialmerger.gles"
		},
		{
			"children":[
				1
			],
			"name":"Sketchfab_model",
			"rotation":[
				-0.70710688829422,
				0,
				0,
				0.7071066498756409
			]
		}
	],
	"materials":[
		{
			"doubleSided":true,
			"name":"None",
			"normalTexture":{
				"index":0,
				"scale":0.44484850764274597
			},
			"occlusionTexture":{
				"index":1
			},
			"pbrMetallicRoughness":{
				"baseColorTexture":{
					"index":2
				},
				"metallicFactor":0.5236364006996155,
				"metallicRoughnessTexture":{
					"index":1
				}
			}
		}
	],
	"meshes":[
		{
			"name":"Object_0",
			"primitives":[
				{
					"attributes":{
						"POSITION":0,
						"NORMAL":1,
						"TEXCOORD_0":2
					},
					"indices":3,
					"material":0
				}
			]
		}
	],
	"textures":[
		{
			"sampler":0,
			"source":0
		},
		{
			"sampler":0,
			"source":1
		},
		{
			"sampler":0,
			"source":2
		}
	],
	"images":[
		{
			"mimeType":"image/png",
			"name":"None_normal",
			"uri":"None_normal.png"
		},
		{
			"mimeType":"image/png",
			"name":"None_metallicRoughness",
			"uri":"None_metallicRoughness.png"
		},
		{
			"mimeType":"image/png",
			"name":"None_baseColor",
			"uri":"None_baseColor.png"
		}
	],
	"accessors":[
		{
			"bufferView":0,
			"componentType":5126,
			"count":2585,
			"max":[
				0.9074379801750183,
				0.9074379801750183,
				1.6043490171432495
			],
			"min":[
				-0.9074379801750183,
				-0.9074379801750183,
				-1.6552369594573975
			],
			"type":"VEC3"
		},
		{
			"bufferView":1,
			"componentType":5126,
			"count":2585,
			"type":"VEC3"
		},
		{
			"bufferView":2,
			"componentType":5126,
			"count":2585,
			"type":"VEC2"
		},
		{
			"bufferView":3,
			"componentType":5123,
			"count":9870,
			"type":"SCALAR"
		}
	],
	"bufferViews":[
		{
			"buffer":0,
			"byteLength":31020,
			"byteOffset":0,
			"target":34962
		},
		{
			"buffer":0,
			"byteLength":31020,
			"byteOffset":31020,
			"target":34962
		},
		{
			"buffer":0,
			"byteLength":20680,
			"byteOffset":62040,
			"target":34962
		},
		{
			"buffer":0,
			"byteLength":19740,
			"byteOffset":82720,
			"target":34963
		}
	],
	"samplers":[
		{
			"magFilter":9729,
			"minFilter":9987
		}
	],
	"buffers":[
		{
			"byteLength":102460,
			"uri":"scene.bin"
		}
	]
}
